<svg id="图层_1" data-name="图层 1" xmlns="http://www.w3.org/2000/svg" viewBox="0 0 131.65 131.65">
  <defs>
    <style>
      .cls-1, .cls-2 {
        fill: #004386;
      }

      .cls-1 {
        fill-rule: evenodd;
      }
    </style>
  </defs>
  <path class="cls-1" d="M34.35,90.76H97.78L92.7,96H38.11ZM65.73,73H61v3h9.57V73Zm0,3.4H61v1h9.57v-1H65.73Zm-.33-4.71H61v1h9.57v-1H65.4Zm-2.55,5.88-1.83,0v1.68h.11l.22-.11.11-.11.07-.11,0-.11,0-.11v-.11l0-.07.11,0,.26-.07.18-.08.14-.11.15-.14.15-.15.18-.26ZM61,71.51v-1l.07,0,.11-.15.25-.33.26-.29.15-.11.18,0,.18,0,.22.07.22.33.18.4,0,0v.11l0,.11,0,.15-.08.14-.1.11-.12.15-.14.11-.4.11-.44.07-.37,0ZM60.51,90.4H57.8v-20h2.71Zm.29-22.58H57.51l-.07,0,0,0,0,0v2l0,.08h0l.07,0H60.8l.07,0h0L61,70v-2l0,0,0,0ZM59.08,64.6l-.11,0-.14,0-.11.11-.07.11-.15.22-.11.26-.11.4V66l-.15.11-.14.11-.08.15-.07.14-.07.15v.18l0,.15.11.14.08.22v.22l0,0h2.27l.07,0V67.3l.08-.22.07-.14,0-.15v-.18l0-.15-.07-.14-.11-.15-.11-.11L60.07,66l0-.18-.07-.4-.11-.26-.15-.22-.1-.11-.11-.11-.11,0-.11,0h-.19Zm-1.82,5.77h-.11L57,70.26l-.14-.18-.19-.18-.21-.11-.26,0-.15,0-.11-.08-.07-.07,0-.07,0-.11.07-.11,0,0,0,0,0,0-.08,0-.07,0-.14,0-.11.08-.15.14-.07.11,0,.08,0,.07,0,.15.11.22.19.18.21.18.11.11.08.22.11.29.07.15.11.14.15.08.14,0h.7Zm.11,2.42h-.81v-1h.81Zm0,1H51.92V73h5.45Zm0,2.7H52V74.1h5.41Zm0,1.06H51.92v-.8H57.4Zm-3.91.4H51.92v1.5h.15l.11-.07.07-.15.11-.25.07-.11.15-.08.18-.07.18-.14.19-.11.14-.15.15-.15.07-.11,0-.07Zm-2,12.46H49V72.64h2.48Zm.22-20.31,0,0h0l0,.08v1.86l0,0,0,0,0,0h-3l-.07,0,0,0,0,0V70.23l0-.08h0l.07,0Zm-8,3.29v.91l-.07,0v16H41.29v-17Zm.18-1.87.08,0,0,.07V73l0,.07-.08,0H41.22l-.08,0,0-.07V71.65l0-.07.08,0Zm-1.31-2.63h-.11l-.11,0-.11.07-.15.15,0,.11-.11.25-.11.3V70l-.11.07-.11.07-.08.11,0,.08,0,.11v.11l.07.14.08.11.07.08,0,.07V71l-.08.07,0,.08,0,.11v0h1.79l0,0v-.11l0-.08,0-.07V71l0-.07,0-.08.11-.11,0-.14v-.22l-.08-.08-.07-.11-.07-.07L43.3,70l0-.18-.07-.3-.11-.25L43,69.17,42.9,69,42.75,69l-.11,0Zm6,3.91,0-.33h-.15v-.14l0-.3-.07-.25-.47-.37-.37-.29V71l.07-.11h0l0,0h-.11l-.11,0-.07,0-.11,0L47,71l-.08.1,0,.08v.11l.25.47.29.44.08.26.14.22.08.07.11.07.1,0h.15Zm0,1h-.51V73h.51Zm0,1H44v-.84h4.57ZM55.83,78h1.54l0,1.47,0,0h-.11l-.15-.07L57,79.25,57,79l-.11-.11-.14-.08-.18-.07-.19-.14-.18-.11L56,78.34l-.11-.15-.07-.11,0-.07ZM50.17,67.3h-.11l-.11.08-.11.07-.07.11-.11.26-.11.22-.08.32v.15l-.11.11-.14.11-.07.15L49,69l0,.15,0,.18,0,.11.07.15.11.11,0,.11v0h0l0,0h.07l.84,0h1l0,0v-.11l.11-.15.07-.11,0-.15v-.14L51.37,69l-.07-.18-.11-.15-.11-.11L51,68.51l0-.18L50.86,68l-.07-.22-.11-.22-.11-.11-.07-.11-.11,0-.11,0H50.2v0Zm1.71,5.52v-.33H52l0-.14,0-.3.07-.25.44-.37.4-.29,0-.18,0-.11.07,0h.07l.11,0,.11,0,.08,0,.07.08.07.1,0,.08,0,.11-.26.47L53,72.2l-.07.26-.11.22-.08.07-.1.07-.15,0h-.15Zm-3.32,4H44V75.05h4.57Zm0,1.06H44v-.84h4.57Zm0,1.61V78.08H47.1v0l0,.11.11.15.11.14.11.11.15.11.29.22.29.15.22.22Zm-4.53,0V78.08h1.46v0l-.07.11-.07.15-.11.14-.11.11-.15.11-.29.22-.29.15-.26.25Zm0-6.1v.29l.19,0,.29,0,.14,0,.19-.07.18-.07.15-.11.11-.11,0-.08,0-.07V73l0-.08-.07-.07-.11-.07L45,72.68v-.19l-.07-.11-.15-.11-.07,0h-.37l-.11,0,0,1.1Zm-3,.36v-.36h-.11l0-.15,0-.29-.07-.26-.07-.11-.11-.11-.15-.11-.11-.07L40,72.16,39.79,72l0-.18,0-.11h0l0,0h-.11l0,0-.07,0-.08,0-.07.15v.32l.07.11,0,.11.11.11.08.08.07.11.11.14.07.18.07.26.11.22.11.07.08.08.14,0H41Zm0,4.13h-.58v-.84H41Zm.11-3.14h-.69v-.84h.69Zm-.18,8.18v6.32l-2.31,0-.07-.07-.07-.11,0-.22,0-.26v-.73l.07-.18.18-.33.22-.29.22-.18.07-.11-.07-.22L39,85.94l0-.26.07-.25.07-.26.15-.22.18-.18.19-.18.18-.15L40,84.3v-.15l.11-.44.07-.15.11-.14.11-.15.15-.11.25-.14Zm0,7.53h-3v-.88h3Zm27.7-12.86,1.83,0v1.68h-.11l-.22-.11L70,79.11,69.94,79l0-.11,0-.11v-.11l0-.07-.11,0-.26-.07-.18-.08-.15-.11L69,78.16,68.88,78l-.19-.26Zm1.9-6.1v-1l0,0-.14-.15L70.08,70l-.25-.29-.15-.11-.18,0-.19,0-.21.07-.22.33-.19.4v.26l0,.15.07.14.11.11.11.15.15.11.4.11.44.07.36,0ZM71,90.4h2.7v-20H71Zm-.29-22.58H74l.07,0,0,0,0,0v2l0,.08h0l-.07,0H70.67l0,0h-.07V70l0,0V68l0,0v0l.07,0Zm1.71-3.22.15,0,.11,0,.11.11.07.11.18.22.11.26.08.4V66l.14.11.15.11.11.15.07.14,0,.15v.18l0,.15-.07.14-.07.22v.19l0,0,0,0H71.18l0,0,0,0V67.3L71,67.08,71,66.94l0-.15v-.18l0-.15.07-.14.11-.15.11-.11.18-.11v-.18l.08-.4.11-.26.14-.22.11-.11.11-.11.11,0,.15,0h.14Zm1.83,5.77h.11l.18-.11.18-.18.15-.18.22-.11.29,0,.11,0,.11-.08.08-.07,0-.07,0-.11-.08-.11v0h0v0l.08,0,0,0,.08,0,.14,0,.15.08.11.14.11.11v.15l0,.15-.15.22-.18.18-.22.18-.11.11-.07.22-.11.29-.07.15-.11.14-.15.08-.15,0h-.69Zm-.11,2.42h.8v-1h-.8Zm0,1h5.44V73H74.1Zm0,2.7h5.44V74.1H74.1Zm0,1.06h5.44v-.8H74.1ZM78,78h1.53v1.5h-.11l-.14-.07-.07-.15L79.11,79,79,78.89l-.14-.08-.19-.07-.18-.14-.18-.11-.15-.15-.11-.15L78,78.08V78Zm2,12.46h2.49V72.64H80Zm-.22-20.31,0,0h0l0,.08v1.86l0,0,0,0,0,0h3l0,0,0,0,0,0V70.23l0-.08h0l0,0Zm8,3.29v.91l.07,0v16h2.34v-17Zm-.15-1.87-.11,0,0,.07V73l0,.07.11,0h2.63l.11,0,0-.07V71.65l0-.07-.11,0Zm1.28-2.63H89l.11,0,.14.07.11.15,0,.11.15.25.07.3,0,.18.07.07.11.07.07.11,0,.08,0,.11v.11l0,.14-.11.11-.07.08,0,.07v0l0,0,0,.07,0,.08v.11l0,0H88l0,0v-.11l0-.08,0-.07,0,0,0,0v-.07L88,70.81l-.11-.11,0-.14v-.22l.07-.08.08-.11.07-.07.11-.07,0-.18.07-.3.11-.25.07-.11.11-.15.15-.07.11,0Zm-6,3.91,0-.33H83l0-.14v-.3l.08-.25.47-.37.4-.29L84,71l-.08-.11h0l.07,0h.08l.11,0,.07,0,.11,0,.07.08.07.1,0,.08v.11l-.26.47L84,72.2l-.07.26-.11.22-.11.07-.11.07-.11,0h-.14Zm0,1h.51V73h-.51Zm0,1h4.56v-.84H82.91ZM75.64,78H74.1v1.5h.11l.15-.07.07-.15.11-.25.07-.11.15-.08.18-.07.18-.14.19-.11.14-.15.11-.15.11-.11V78ZM81.33,67.3h.11l.08.08.11.07.07.11.15.26.07.22.07.32v.15l.11.11.15.11.11.15.07.14,0,.15,0,.18,0,.11-.08.15-.1.11,0,.11v0l-.07,0H82.1l-.84,0h-1v0l0,0v-.07l-.11-.15-.07-.11,0-.15v-.14l.07-.15.08-.18.11-.15.11-.11.14-.07v-.18l.08-.33.07-.22.14-.22.08-.11.07-.11.11,0,.11,0h.11v0Zm-1.75,5.52v-.33h-.11l0-.14v-.3l-.1-.25-.44-.37-.4-.29,0-.18,0-.11-.07,0h-.08l-.11,0-.07,0-.11,0-.07.08-.08.1,0,.08v.11l.22.47.33.44.07.26.11.22.11.07.07.07.15,0h.14Zm3.33,4h4.56V75.05H82.91Zm0,1.06h4.56v-.84H82.91Zm0,1.61V78.08H84.4l0,0,0,.11-.07.15-.11.14-.15.11-.11.11L83.6,79l-.29.15-.26.22Zm4.53,0,0-1.43H86l0,0,0,.11.07.15.11.14.15.11.11.11.29.22.29.15.26.25Zm0-6.1v.29l-.18,0-.29,0-.15,0-.18-.07-.18-.07-.15-.11-.07-.11-.08-.08,0-.07V73l0-.08.08-.07.11-.07.11-.07v-.19l.07-.11.15-.11.11,0h.32l.11,0v1.1Zm3,.36v-.36h.15v-.15l0-.29.08-.26.07-.11.11-.11.14-.11.15-.07.26-.15.22-.14,0-.18,0-.11h0l0,0h.11l.07,0,0,0,.07,0,.07.15v.32l0,.11-.08.11-.07.11-.11.08-.07.11-.11.14-.07.18-.08.26-.11.22-.07.07-.11.08-.11,0h-.62Zm0,4.13h.58v-.84h-.58Zm-.08-3.14h.66v-.84h-.66Zm.15,8.18v6.32l2.34,0,.07-.07,0-.11,0-.22,0-.26,0-.25v-.26l0-.22,0-.18-.18-.33-.25-.29-.22-.18-.08-.11.08-.22.11-.66,0-.26,0-.25-.11-.26L92.19,85,92,84.77l-.14-.18-.22-.15-.18-.14v-.15l-.11-.44-.08-.15-.11-.14-.11-.15-.14-.11L90.69,83Zm0,7.53h3v-.88h-3Z" transform="translate(0 0)"/>
  <path class="cls-1" d="M61.2,53l.15.44.18.43.18.44.22.44.26.44.29.4.29.4.33.33.26.26.29.22.26.18.33.15.29.14.36.11.33.08.4,0,.37,0,.36-.08.33-.11.33-.14L67.3,57l.3-.18.25-.22.26-.26.33-.33.33-.4.25-.4.26-.44.22-.44.22-.44.18-.43.15-.44.4-.15.4-.18.33-.22.33-.29.25-.33.22-.37L72.2,51l.15-.47V50.5l0-.08v.08l.11,0,.33.08.48.07.51.07h.51l.44-.07.4-.07.29,0,.22-.07.22-.08.22-.14.22-.15.44-.36.51-.37.62-.33.7-.33.69-.29.66-.26.29-.07.18-.11.15-.11.11-.11.07-.11,0-.11v-.18l0-.11-.07-.11-.11-.11-.15-.18L80,46.51,79.4,46l-.33-.26-.29-.33-.26-.32-.22-.33-.22-.37-.22-.33-.25-.33-.29-.33-.41-.32-.43-.33L76,42.53l-.33-.15-.36-.11-.44-.07v-.69l0-.48,0-.33-.33-.87L74.14,39,74,38.51,73.92,38l-.07-.58,0-.59v-.44l0-.11,0-.07,0-.07-.07,0L73.44,36,73.19,36h-.41l-.14.08-.33.14-.37.15-.4.15-.4.11-.47.07-.55.14-.55.15-.4.15-.51.22-.48.22-.44.25-.4.26-.84.58-.84.66h-.07l-.88-.66-.8-.58-.44-.26L63,37.53l-.44-.22-.51-.22-.4-.15-.55-.15-.59-.14-.43-.07-.41-.11-.4-.15-.4-.15L58.57,36,58.46,36h-.4L57.8,36l-.22.07-.07,0,0,.07,0,.07v.11l0,.22,0,.22,0,.59-.07.58-.11.51-.15.44-.29.88-.33.87-.07.33,0,.48V42l0,.25-.44.07-.36.11-.37.15-.44.26-.47.33-.41.32-.29.33-.22.33-.25.33-.22.37-.22.33-.26.32-.25.33-.33.26-.59.47-.43.37-.19.18-.11.11-.07.11,0,.11v.18l0,.11.07.11.11.11.15.11.22.11.25.07.66.26.73.29.7.33.58.33.51.37.48.36.22.15.22.14.22.08.22.07.25,0,.4.07.48.07h.47l.55-.07.48-.07.29-.08.14,0v0l0,.07.15.47.18.44.22.37.29.33.29.29.37.22.36.18.41.15ZM65,43.85v3.21l-.08,0L64.82,47l0-.22,0-.29L64.6,46l-.22-.52-.25-.58-.33-.51-.26-.4-.11-.15-1,.73.26.29.22.4.22.44.18.4.07.19.08.14-.26-.07-.25,0-.26,0h-.26L62.37,46l-.11-.29-.14-.41-.26-.47-.18-.33-.22-.33-.26-.33L61,43.59l-.3-.29L60.33,43l-.41-.25-.47-.22L59,42.38l-.44-.11-.47-.07-.48,0v0l0-.62.07-.55.15-.51.22-.59.11-.33.14-.36.08-.37,0-.33.08-.65.07-.4h.07l.29.14.44.15.73.14L61,38l.73.18.26.11.26.11.25.14.26.15.47.33.48.36.47.37.48.33.22.15.25.14.26.11.25.07.26-.07.26-.11.21-.14.26-.15.48-.33.43-.37.48-.36.47-.33.26-.15.26-.14.25-.11.29-.11.73-.18.81-.19.73-.14.44-.15.33-.14h0l.08.4.1.65,0,.33.07.37.11.36.15.33.22.59.15.51.07.55v.66l-.44,0-.47.07-.48.11-.4.19-.48.22-.4.25-.36.26-.3.29-.25.29-.22.33-.22.33-.22.33-.22.47-.18.41-.07.29-.08.22h-.25l-.26,0-.25,0-.26.07,0-.14.07-.19.18-.4.22-.44.26-.4.22-.29-1-.73-.11.15-.26.4-.29.51-.29.58-.18.52-.15.47,0,.29,0,.22-.11.07-.07,0V43.85Zm.65-2.93.19,0L66,41l.18.11.14.11.11.18.11.14,0,.22,0,.19,0,.22,0,.18-.11.18-.11.15-.14.14L66,42.9l-.22.07-.19,0-.22,0-.18-.07L65,42.82l-.15-.14-.14-.15-.08-.18-.07-.18v-.41l.07-.22.08-.14.14-.18.15-.11.18-.11.18,0Zm0,15.42H65.4l-.21,0L65,56.23l-.22-.11-.41-.22L64,55.61l-.33-.36-.29-.37-.22-.4-.18-.4-.22-.48-.08-.33.3.11.33.15.32.22.37.33.66.62.47.47.29.3.22.14.19-.14.33-.3.47-.47.62-.62.37-.33.36-.22.29-.15.3-.11-.08.33-.18.48-.18.4-.26.4-.29.37-.33.36-.36.29-.41.22-.18.11-.22.08-.22,0Zm0-2.26-.29-.3-.44-.4-.47-.44-.48-.4-.22-.11-.25-.11-.29-.07-.33-.11-.7-.15-.62-.18-.22,0-.18-.11L61,51.56l-.18-.11-.26-.3-.21-.33-.19-.32L60,50.17l0-.33,0-.29.08-.26.11-.26.11-.21.11-.22.14-.19.15-.18.14-.15.19-.14.18-.11.18-.11.18-.07.22-.08.41-.11h.43l.33,0,.37.11.36.15.33.14.66.4.48.37.14.07.11,0h.33l.15,0,.11-.07.51-.37.62-.4.36-.14.37-.15.33-.11.33,0H69l.43.11.19.08.18.07.22.11.18.11.15.14.18.15.15.18.14.19.11.22L71,49l.11.26.07.26,0,.29-.07.33-.08.33-.18.32-.22.33-.29.3-.15.11-.18.11-.18.11-.18,0-.66.18-.66.15-.33.11-.29.07-.26.11-.22.11-.47.4-.51.44-.4.4Zm3.62-12.54.18,0,.22,0,.15.11.15.11.14.18.07.15.08.21,0,.19,0,.22-.08.18-.07.18-.14.15-.15.14-.15.08-.22.07H69l-.18-.07-.18-.08-.15-.14-.15-.15L68.29,43l-.07-.18v-.41l.07-.21.07-.15.15-.18.15-.11.18-.11.18,0Zm.7,5,.11,0,.07-.26.25-.58.19-.37.22-.33.25-.33.29-.25.3-.22.29-.22.29-.18.29-.15.33-.11.4-.07.41-.08.47,0,.44,0,.4,0,.33.11.29.08.26.14.22.15.22.15.22.18.18.18.14.22.15.18.15.22.22.4.22.41.36.43.48.48.36.36.18.15-.25.07-.62.22-.37.19-.4.14-.37.22-.29.18-.69.52-.59.36-.29.11-.33.11-.36,0h-.48l-.4,0-.4-.07-.33-.08-.26,0-.07,0-.11-.07-.18-.44-.19-.4-.25-.33-.22-.26-.29-.29-.33-.33-.18-.14-.22-.15-.22-.11Zm-7.93-5,.22,0,.18,0,.18.11.15.11.11.18.11.15,0,.21,0,.19,0,.22L63,43l-.11.18-.11.15-.15.14-.18.08-.18.07h-.44l-.19-.07-.18-.08-.14-.14-.11-.15L61.06,43,61,42.79v-.41l.08-.21.11-.15.11-.18.14-.11.18-.11.19,0Zm-.73,5-.26.15-.26.11-.18.15-.22.14-.33.33-.25.29-.26.26-.22.33-.22.4-.14.44-.11.07-.11,0-.22,0-.33.08-.4.07-.44,0h-.44l-.4,0-.33-.11-.29-.11-.59-.36-.65-.52-.33-.18-.37-.22-.36-.14-.37-.19-.62-.22-.26-.07.15-.15.4-.36.44-.48.37-.43.25-.41.22-.4.11-.22.15-.18.18-.22.18-.18.22-.18.22-.15.22-.15.26-.14.29-.08.33-.11.4,0,.44,0,.47,0,.4.08.37.07.33.11.33.15.29.18.29.22.29.22.3.25.25.33.22.33.18.37.26.58.07.26Z" transform="translate(0 0)"/>
  <path class="cls-2" d="M65.81,24.26H64.75l-1.06,0-1.06.07-1.06.11-1.06.11-1,.15-1,.18-1,.18-1,.22-1,.26-1,.25-1,.29-1,.33-.95.33-1,.37-.91.36-.95.4-.92.44-.91.44-.88.48-.87.51-.88.51-.84.51-.84.55-.81.58-.8.59-.8.58-.77.66-.77.62-.77.66-.73.69-.69.7-.7.73-.69.73-.66.73-.62.77-.66.77-.58.8-.58.8-.59.81-.55.84-.55.87-.51.84-.47.88-.48.91-.44.88-.43.92-.41.95-.36.91-.37,1-.36,1-.29,1-.3,1-.25,1-.26,1-.22,1-.22,1-.14,1-.15,1.06-.11,1-.11,1.06-.07,1.06,0,1.06V66.9l0,1.06L24.37,69l.11,1.06.11,1.06.15,1,.14,1,.22,1,.22,1,.26,1,.25,1,.3,1,.29,1,.36.95.37,1,.36.91.41,1,.43.92.44.91.48.88.47.87.51.88.55.84.55.84.59.81.58.8.58.8.66.77.62.77.66.76.69.7.7.73.91.91.95.84,1,.84,1,.81,1.06.8,1,.73,1.09.7,1.1.69,1.13.66,1.14.62,1.17.55,1.2.55,1.21.51,1.2.47,1.25.44,1.27.37.84-1.28-1.24-.37-1.2-.4-1.25-.48-1.16-.47-1.21-.51-1.13-.59L46.62,101l-1.13-.62-1.09-.66L43.34,99l-1-.73-1-.77-1-.77-1-.84-1-.84-.92-.91-.65-.66-.66-.73-.62-.69-.62-.73-.63-.77-.58-.77L33.1,89l-.54-.8-.52-.8-.51-.84L31,85.79,30.55,85l-.44-.87-.44-.88-.4-.88-.4-.88-.37-.91-.33-.91-.33-1-.33-.92-.25-1-.29-1-.22-1-.22-1-.18-1-.15-1-.15-1-.11-1-.11-1-.07-1,0-1V64.78l0-1,.07-1,.11-1,.11-1,.15-1,.15-1,.18-1,.22-.95.25-1,.26-.95.25-1,.33-.91.33-.95.33-.91.37-.92.4-.87.4-.88.44-.88.44-.87.47-.84.51-.81.51-.84.52-.8.54-.81.59-.76.58-.77.63-.73.62-.77.62-.69.66-.73.65-.66.7-.7.73-.65.69-.62.73-.63.77-.62.77-.58.76-.55.81-.55.8-.55.81-.51.84-.47.84-.48.87-.47.88-.44.88-.4.87-.4.92-.37.91-.33.91-.33,1-.33,1-.25.94-.26,1-.25.95-.22,1-.19,1-.14,1-.15,1-.11,1-.11,1-.07,1,0h2.09l1,0,1,.07,1,.11,1,.11,1,.15,1,.14,1,.19,1,.22,1,.25,1,.26.94.25.92.33,1,.33.91.33.88.37.91.4.88.4.88.44.84.47.87.48.81.47.84.51.8.55.81.55.76.55.77.58.73.62.73.63.73.62.7.65.69.7.69.66.66.73.62.69.62.77.63.73.58.77.55.76.55.81.55.8.51.84.47.81.48.87.47.84.44.88.4.88.4.87.37.92.33.91.33.95.29.91.29,1,.26.95.25,1,.22.95.18,1,.15,1,.15,1,.11,1,.11,1,0,1,0,1,0,1v0l0,1,0,1,0,1-.11,1-.11,1-.15,1-.15,1-.18,1-.22,1-.25,1-.26,1-.29,1-.29.92-.33,1-.33.91-.37.91-.4.88-.4.88-.44.88-.47.87-.48.84-.47.81-.51.84-.55.8-.55.8-.55.77-.58.77-.63.77-.62.73-.62.69-.66.73-.69.66-.91.91-.92.84-1,.84-1,.77-1,.77-1,.73-1.09.73-1.1.66L85,101l-1.14.58-1.17.59-1.17.51-1.2.47-1.21.48-1.2.4-1.28.37.88,1.28,1.27-.37,1.25-.44,1.2-.47,1.21-.51,1.2-.55,1.17-.55L86,102.2l1.13-.66,1.09-.66,1.07-.73,1-.73,1-.8,1-.81,1-.84,1-.84.91-.91.7-.73.69-.7.66-.76.62-.77.62-.77.62-.8.58-.8.59-.81.55-.84.51-.84.51-.88.51-.87.48-.88.44-.91.43-.92.41-1,.36-.91.37-1,.33-1,.32-1,.3-1,.25-1,.26-1,.22-1,.18-1,.18-1,.15-1.06.11-1,.11-1.06.07-1.06,0-1.06V64.75l0-1.06-.07-1.06-.11-1.06-.11-1-.15-1.06-.18-1-.18-1-.22-1-.26-1-.25-1-.3-1-.32-1-.33-1-.37-1-.36-.91-.41-.95-.43-.92-.44-.88-.48-.91-.51-.88-.51-.84-.51-.87-.55-.84-.59-.81-.58-.8-.62-.8-.62-.77-.62-.77-.66-.73-.69-.73-.7-.73-.73-.7L93.76,35,93,34.38l-.77-.62-.77-.66-.8-.58-.8-.59-.81-.58-.84-.55-.88-.51-.84-.51-.87-.51-.92-.48-.87-.44-.92-.44-1-.4-.91-.36-1-.37-1-.33-1-.33-1-.29-1-.25-1-.26-1-.22-1-.18-1-.18-1.06-.15-1-.11L69,24.37,68,24.3l-1.06,0ZM64.16,130.15l-1.64-.07L60.87,130l-1.64-.14-1.61-.18L56,129.42l-1.57-.26-1.57-.29-1.57-.33-1.57-.4-1.53-.4-1.5-.44-1.5-.51-1.5-.51-1.46-.55-1.46-.62-1.43-.62-1.42-.66-1.39-.7-1.39-.73-1.35-.76-1.35-.77L31.13,120l-1.28-.84-1.28-.88-1.24-.91-1.24-1-1.21-1-1.17-1-1.16-1-1.14-1.06-1.09-1.06-1.06-1.09L18.2,109.1l-1-1.17-1-1.16-1-1.21-.95-1.24-.91-1.24-.88-1.28-.84-1.28-.84-1.32L10,97.85,9.24,96.5l-.73-1.39-.69-1.39L7.16,92.3l-.62-1.43-.62-1.46L5.37,88l-.51-1.5L4.39,85l-.48-1.5-.4-1.53-.4-1.57-.33-1.57-.29-1.57-.26-1.58L2,74l-.18-1.61-.15-1.65-.07-1.64L1.5,67.49l0-1.65v0l0-1.65.07-1.64.07-1.65.15-1.64L2,57.62,2.23,56l.26-1.57.29-1.57.33-1.57.4-1.57.4-1.54.44-1.49.51-1.5.51-1.5.55-1.46.62-1.46.62-1.43.66-1.42.69-1.39.73-1.39L10,33.8l.77-1.35.84-1.32.84-1.28.88-1.28.91-1.24.95-1.24,1-1.21,1-1.17,1-1.17,1.06-1.09,1.06-1.13,1.09-1.07,1.14-1.05,1.16-1,1.17-1,1.21-1,1.24-.95,1.24-.91,1.28-.88,1.28-.84,1.32-.84L33.8,10l1.35-.77,1.39-.73,1.39-.69,1.42-.66,1.43-.62L42.24,6l1.46-.58,1.5-.51,1.5-.48,1.5-.47,1.53-.4L51.3,3.1l1.57-.32,1.57-.3L56,2.23,57.62,2l1.61-.22,1.64-.15,1.65-.07,1.64-.07,1.65,0,1.68,0,1.64.07,1.65.07,1.6.15L74,2l1.61.26,1.57.25,1.57.3,1.57.32,1.53.41,1.54.4L85,4.38l1.5.48,1.5.51L89.41,6l1.46.59,1.43.62,1.42.66,1.39.69,1.39.73,1.35.77,1.32.77,1.31.84,1.32.84,1.28.88,1.24.91,1.24.95,1.17,1,1.21,1,1.13,1,1.13,1.05,1.13,1.07,1.06,1.13,1.06,1.09,1,1.17,1,1.17,1,1.21,1,1.24.88,1.24.91,1.28.84,1.28.8,1.32.81,1.35.77,1.35.73,1.39.69,1.39.66,1.42.62,1.43.58,1.46.59,1.46.51,1.5.47,1.5.48,1.49.4,1.54.37,1.57.36,1.57.29,1.57.26,1.57.22,1.61.18,1.61.15,1.64.11,1.65.07,1.64,0,1.65h0v0h0l0,1.65-.07,1.64L130,70.77l-.15,1.65L129.64,74l-.22,1.6-.26,1.58-.29,1.57-.36,1.57-.37,1.57-.4,1.53-.48,1.5-.47,1.5-.51,1.5-.59,1.46-.58,1.46-.62,1.43-.66,1.42-.69,1.39-.73,1.39-.77,1.35-.81,1.35-.8,1.32-.84,1.28-.91,1.28-.88,1.24-1,1.24-1,1.21-1,1.16-1,1.17-1.06,1.14-1.06,1.09-1.13,1.06-1.13,1.06-1.13,1-1.21,1-1.21,1-1.2,1-1.24.91-1.28.88-1.32.84-1.31.84-1.32.77-1.35.76-1.39.73-1.39.7-1.42.66-1.43.62-1.46.62-1.46.55-1.5.51-1.5.47-1.53.48-1.54.4-1.53.4-1.57.33-1.57.29-1.57.26-1.61.26-1.65.18-1.6.14-1.65.08-1.64.07-1.68,0ZM65.81,0,64.13,0l-1.68,0L60.76.18,59.08.33,57.44.55,55.79.77,54.15,1l-1.61.33L51,1.68l-1.61.4-1.57.4L46.26,3l-1.54.51L43.19,4l-1.5.59-1.5.62-1.46.62-1.46.69-1.43.7L34.46,8l-1.39.77-1.39.81-1.35.84L29,11.25l-1.28.88-1.28.95L25.18,14,24,15l-1.21,1-1.2,1.06-1.14,1.1-1.13,1.09L18.2,20.42l-1.1,1.14L16,22.76,15,24l-1,1.2-.95,1.28-.95,1.28L11.25,29l-.87,1.35-.84,1.32-.81,1.39-.8,1.39L7.2,35.84l-.7,1.47-.69,1.42-.62,1.46-.62,1.5L4,43.19l-.51,1.53L3,46.26l-.47,1.53-.41,1.57L1.68,51l-.33,1.57L1,54.19l-.25,1.6L.55,57.44.33,59.08.18,60.76.07,62.44l0,1.68,0,1.69v0l0,1.68,0,1.68.11,1.68.15,1.68.22,1.65.22,1.64L1,77.46l.33,1.65.33,1.57.4,1.6.41,1.58L3,85.39l.51,1.54L4,88.46,4.57,90l.62,1.5.62,1.46.69,1.46.7,1.42.73,1.39.8,1.39L9.54,100l.84,1.31.87,1.36.88,1.28.95,1.27.95,1.28,1,1.21,1,1.21,1.06,1.2,1.1,1.13,1.09,1.14,1.13,1.09,1.14,1.1,1.2,1.06,1.21,1,1.21,1,1.27.95,1.28,1,1.28.88,1.32.87,1.35.84,1.39.81,1.39.76,1.38.77,1.43.69,1.46.7,1.46.62,1.5.62,1.5.59,1.53.51,1.54.51,1.53.47,1.57.41L51,130l1.57.33,1.65.33,1.6.25,1.65.22,1.64.22,1.68.15,1.69.11,1.68,0,1.68,0,1.71,0,1.68,0,1.69-.11,1.68-.15,1.64-.22,1.65-.22,1.6-.25,1.61-.33,1.61-.33,1.61-.4,1.57-.41,1.53-.47,1.54-.51,1.53-.51,1.5-.59,1.5-.62,1.46-.62,1.42-.7,1.43-.69,1.42-.77,1.39-.76,1.35-.81,1.36-.84,1.35-.87,1.28-.88,1.28-1,1.24-.95,1.24-1,1.21-1,1.2-1.06,1.13-1.1,1.14-1.09,1.09-1.14,1.1-1.13,1-1.2,1-1.21,1-1.21,1-1.28.91-1.27.92-1.28.87-1.36.84-1.31.81-1.39.76-1.39.77-1.39.7-1.42.69-1.46.62-1.46.62-1.5.55-1.5.55-1.53.51-1.54.44-1.53.44-1.58.4-1.6.33-1.57.33-1.65.25-1.61.22-1.64.18-1.65.15-1.68.11-1.68.07-1.68,0-1.68v0l0-1.69-.07-1.68-.11-1.68-.15-1.68-.18-1.64-.22-1.65-.25-1.6-.33-1.65L130,51l-.4-1.61-.44-1.57-.44-1.53-.51-1.54-.55-1.53-.55-1.5-.62-1.5-.62-1.46-.69-1.42-.7-1.47-.77-1.38-.76-1.39-.81-1.39-.84-1.32L120.4,29l-.92-1.28-.91-1.28-1-1.28-1-1.2-1-1.21-1-1.2-1.1-1.14-1.09-1.13-1.14-1.09-1.13-1.1L108.89,16l-1.21-1-1.24-1-1.24-.95-1.28-.95-1.32-.88-1.31-.87-1.36-.84-1.35-.81L97.19,8,95.77,7.2l-1.43-.7-1.42-.69-1.46-.62L90,4.57,88.46,4l-1.53-.51L85.39,3l-1.53-.48-1.57-.4-1.61-.4-1.61-.33L77.46,1,75.86.77,74.21.55,72.57.33,70.89.18,69.2.07,67.52,0Z" transform="translate(0 0)"/>
  <polygon class="cls-1" points="11.69 46.29 11.62 46.22 11.47 46.08 11.36 46.04 11.29 46 11.22 46.04 11.14 46.19 11.07 46.48 10.96 46.73 10.93 46.84 10.85 46.88 10.82 46.95 10.74 46.95 10.56 46.91 10.38 46.88 10.3 46.8 10.23 46.77 10.19 46.7 10.19 46.62 10.23 46.4 10.27 46.15 10.3 46.04 10.27 45.93 10.27 45.85 10.19 45.82 9.94 45.75 9.54 45.64 9.17 45.53 9.03 45.45 8.91 45.42 8.66 45.34 8.51 45.27 8.4 45.2 8.29 45.13 8.22 45.02 8.19 44.72 8.22 44.36 8.22 44.17 8.29 43.99 8.37 43.81 8.44 43.66 8.51 43.55 8.59 43.48 8.66 43.44 8.73 43.44 8.84 43.44 8.99 43.44 9.1 43.41 9.24 43.41 9.32 43.44 9.43 43.48 9.5 43.55 9.61 43.66 9.9 43.96 10.27 44.28 10.41 44.36 10.56 44.43 10.6 44.43 10.63 44.43 10.63 44.39 10.63 44.32 10.56 43.99 10.45 43.52 10.3 43.01 10.09 42.46 9.76 41.76 9.39 41.18 9.24 40.92 9.1 40.7 9.06 40.52 9.06 40.38 9.13 40.19 9.24 40.01 9.35 39.9 9.5 39.79 9.76 39.64 10.01 39.57 10.12 39.57 10.23 39.64 10.38 39.72 10.52 39.79 10.74 39.97 10.82 40.05 10.82 40.19 10.82 40.56 10.85 41.03 10.96 41.47 11.14 42.16 11.22 42.68 11.25 43.15 11.33 43.74 11.33 44.14 11.33 44.54 11.33 44.72 11.4 44.87 11.44 44.94 11.51 44.98 11.58 45.02 11.69 45.02 11.91 45.13 12.17 45.34 12.5 45.64 12.79 45.93 13.04 46.19 13.26 46.33 13.34 46.37 13.37 46.33 13.41 46.26 13.41 46.15 13.37 45.93 13.37 45.78 13.34 45.71 13.26 45.56 13.04 45.27 12.79 44.87 12.71 44.65 12.68 44.47 12.68 44.43 12.68 44.36 12.71 44.32 12.79 44.32 13.08 44.32 13.3 44.28 13.37 44.25 13.41 44.21 13.37 44.14 13.3 44.03 13.01 43.7 12.71 43.33 12.46 43.01 12.28 42.75 12.09 42.53 11.95 42.27 11.91 42.13 11.88 41.98 11.95 41.87 12.06 41.76 12.17 41.73 12.28 41.69 12.39 41.69 12.5 41.69 12.68 41.8 12.79 41.98 12.9 42.16 13.01 42.35 13.08 42.46 13.12 42.53 13.19 42.6 13.3 42.64 13.41 42.71 13.52 42.79 13.56 42.79 13.59 42.75 13.59 42.68 13.56 42.53 13.48 42.16 13.34 41.76 13.19 41.4 13.12 41.18 13.12 41 13.19 40.74 13.3 40.48 13.45 40.27 13.52 40.23 13.56 40.23 13.63 40.27 13.66 40.34 13.74 40.52 13.81 40.74 13.85 40.92 13.92 41.25 13.99 41.65 14.07 42.09 14.1 42.42 14.07 42.75 14.07 43.01 14.1 43.19 14.36 43.66 14.8 44.47 15.24 45.27 15.53 45.71 15.6 45.82 15.68 45.82 15.75 45.78 15.79 45.75 15.82 45.71 15.79 45.64 15.71 44.87 15.68 43.66 15.68 43.01 15.68 42.42 15.71 41.98 15.75 41.69 15.86 41.4 15.97 41.14 16 41.03 16.08 41 16.11 40.96 16.19 40.96 16.37 41.11 16.55 41.33 16.7 41.58 16.73 41.84 16.73 42.06 16.66 42.31 16.55 42.57 16.44 42.79 16.41 42.97 16.37 43.3 16.33 43.66 16.33 44.06 16.33 44.87 16.37 45.38 16.41 45.82 16.41 46.04 16.88 46.26 17.65 46.7 18.05 46.88 18.42 47.02 18.6 47.06 18.75 47.1 18.85 47.1 18.93 47.06 18.96 46.99 18.96 46.84 18.93 46.51 19 46.15 19.04 45.97 19.11 45.85 19.18 45.75 19.29 45.67 19.44 45.67 19.55 45.71 19.7 45.75 19.77 45.78 19.88 45.89 19.91 45.97 19.95 46.08 19.95 46.19 19.84 46.51 19.77 46.91 19.73 47.1 19.73 47.28 19.77 47.43 19.84 47.5 20.43 47.68 21.45 47.98 22.51 48.23 23.16 48.41 23.39 48.49 23.68 48.56 23.97 48.71 24.26 48.89 24.52 49.07 24.66 49.25 24.7 49.36 24.7 49.47 24.63 49.58 24.55 49.69 24.11 50.06 23.71 50.31 23.42 50.46 23.2 50.5 23.02 50.46 22.87 50.46 22.84 50.42 22.84 50.35 22.84 50.28 22.87 50.2 22.91 50.09 22.95 50.02 22.95 49.91 22.87 49.8 22.76 49.69 22.55 49.55 22.22 49.36 21.78 49.18 20.97 48.78 20.39 48.56 20.21 48.49 20.1 48.45 20.02 48.45 19.99 48.49 19.99 48.74 20.06 49.11 20.13 49.47 20.24 49.66 20.43 49.84 20.68 50.13 20.75 50.35 20.75 50.53 20.75 50.64 20.72 50.72 20.64 50.83 20.57 50.9 20.35 51.04 20.13 51.15 19.91 51.19 19.7 51.19 19.55 51.15 19.4 51.12 19.29 51.04 19.26 50.93 19.29 50.72 19.29 50.53 19.26 50.28 19.11 49.77 19 49.22 18.96 48.74 19 48.27 19.04 48.16 16.81 47.32 16.77 47.32 16.66 47.35 16.63 47.39 16.59 47.46 16.59 47.61 16.59 47.79 16.7 48.38 16.84 49.22 16.95 49.73 17.1 50.24 17.28 50.83 17.46 51.37 17.87 52.32 18.16 52.91 18.23 53.09 18.31 53.31 18.31 53.49 18.27 53.75 18.2 54 18.09 54.22 17.98 54.41 17.9 54.55 17.79 54.66 17.72 54.73 17.65 54.73 17.61 54.7 17.28 54.55 16.92 54.41 16.77 54.08 16.66 53.71 16.55 53.35 16.48 52.98 16.33 52.18 16.26 51.34 16.19 50.5 16.11 49.69 16.08 48.92 16 48.19 15.93 47.72 15.89 47.32 15.86 47.06 15.82 46.99 15.6 46.84 15.13 46.59 14.58 46.26 14.25 46.08 14.21 46.08 14.18 46.15 14.18 46.26 14.18 46.44 14.21 46.95 14.29 47.54 14.29 47.98 14.29 48.34 14.43 48.74 14.51 49.14 14.51 49.33 14.47 49.47 14.4 49.62 14.29 49.73 14.03 49.8 13.85 49.8 13.7 49.8 13.56 49.69 13.48 49.58 13.41 49.44 13.37 49.25 13.34 49.03 13.3 48.19 13.3 47.65 13.15 47.54 13.01 47.46 12.71 47.17 12.39 46.88 12.06 46.59 11.69 46.29"/>
  <path class="cls-1" d="M29,30l0-.07.07-.14.07-.08.11,0,.11,0,.11,0,.19,0,.18.11.25.11.3.18.58.44.66.47.58.55.48.51.18.22.15.22.11.19v.11l-.15.29-.36.44-.19.21-.18.19-.18.07L32,34l-.07-.08-.11-.07-.11-.15-.07-.14-.19-.33-.18-.33L31,32.56l-.25-.41-.26-.36-.29-.37-.62-.69Zm-2.3-2.44,0-.15.07-.47.07-.52.19-.69.1-.33.11-.29.11-.22.11-.15h.15l.07.08.08.07.14.22.18.29.33.66.22.47.08.15.11.15L29,27l.11.1.11.11.11.11.08.15v.15l0,.33-.15.36-.14.4-.11.4v.08l0,0,0,0,0,0,.18-.07.18-.11.41-.33.18-.14V26.82h.25l.48.07.11,0,.07,0,.07-.11.08-.11v-.37l-.08-.1-.07-.22,0-.33,0-.33,0-.26v-.14l0-.15.11-.18.11-.19.22-.47.22-.59.07-.25V22.8l-.07-.18-.08-.11-.11-.11-.11-.08-.14-.07-.15,0-.11,0-.07-.07,0-.08v-.14l0-.44.14-.73,0-.37L31,20.1l.08-.15.07-.07h.07l.08,0,0,.08.08.11.33.54.69,1.06.84,1.21.73.95.8.95.92,1.1.44.51.36.44.26.36.07.18v.15l-.11.07-.14.11-.19.08L36,28l-.4.15-.25.14-.11.11v.08h0l0,0,.36,0h.66l.84,0,.77-.07.18,0,.15,0,.11-.08.11-.07.18-.18.11-.18.11-.33,0-.19-.19-.18-.47-.51-.8-.88-1.06-1.17-.59-.62-.62-.69-.66-.81-.69-.84-.66-.8L32.52,20,32,19.22l-.44-.69-.07-.11-.08,0-.11,0-.11,0-.11.07-.11.11-.07.11-.07.15-.22.44-.11.47-.11.44-.11.44-.15.84-.22.84v0h0l-.11,0-.07.07-.08.11,0,.11,0,.11v.3l0,.14,0,0v0l.08.22.11.3,0,.18.07.18v.44l0,.37,0,.32-.07.3-.11.22-.11.22-.11.18-.11.11-.07.11h-.08l-.07,0,0-.11L29,26.16l-.11-.29-.11-.18-.07-.22L28.65,25l-.11-.62-.19-.81-.07-.36-.07-.33v-.59l.14-.54.15-.59.07-.33v-.29l-.07-.25-.07-.26-.26-.37-.25-.29-.11-.07-.11,0-.08.08-.07.07-.11.29-.07.29-.08.22-.11.08H27l-.37-.08-.69-.07-.66-.11-.44,0h-.07l-.08,0,0,.07v0l0,.18.15.18.18.26.22.44.33.51.44.69.18.33.15.3.07.21,0,.19v.33l-.08.18-.14.47L26,25l-.11.55-.11.51-.15.62-.15.55-.11.4-.18.29-.33.55,0,.11,0,.07,0,.08v.07l.11.07.18.07h.18l.15,0,.18,0,.07,0,.08-.08h.29l.14-.07.19-.07.11-.11.11-.26,0-.29,0-.29Zm5.63.84.58-.44.51-.33v-.8l.08-.22.14-.11.22-.11H34l.07,0,0,.08,0,.14,0,.37,0,.4v.33l0,.22.26.36.47.55.44.51.22.26.07.11.11.29,0,.15,0,.14v0l-.07.07-.07,0h-.08l-.18,0h-.37l-.18,0-.14-.07-.15-.08-.18-.11-.15-.18-.29-.25-.18-.19h-.15l-.07,0-.08.07-.18.26-.29.25-.11.08-.07,0,0-.07v-.15l.18-.4.15-.25.11-.19.07-.07Zm-.41-.7-.29.19-.11.07h-.25l-.08-.07-.07-.08-.07-.07,0-.15v-.14l.07-.11.11-.15.15-.15.15-.1.11-.11.07-.11,0-.11v-.11l0-.11.07-.15.08-.11L32,26l.11-.08.11-.07.11,0h.14l.11,0,.11,0,.11.07.07.07,0,.08,0,.07,0,.07-.14.26-.22.33-.19.32-.07.3,0,.07v.07l0,0h0l-.07,0,0,0Z" transform="translate(0 0)"/>
  <path class="cls-1" d="M56.34,9.1l-.87.47,0-.14.11-.37.15-.25.14-.26.26-.33.33-.33.73-.69.62-.66.29-.26L58.39,6l.22-.15.22-.11L59,5.7l.22,0h.4l.18,0,.15.07,0,.08,0,.07,0,.07v.08l0,.47L60,7l-.15.52-.14.36-.15.81-.22,1.42-.18,1.43-.11.76,0,.11-.11.15-.14.15-.18.14-.37.22-.26.15-.07,0-.07.11,0,.11v.15l0,.4,0,.59,0,.54.07.33,0,.08.07.07.07,0h.11l.33,0,.4,0h.22l.15,0,.07,0,.08,0,0,.07v.33l-.11.33-.14.37-.19.4-.36.69-.15.33-.14.26,0,.22v.07l.07.07.08,0h.14l.33-.11.33-.15.33-.14.29-.15H60l.14,0h.08l.11,0,.14.15.22.22.11.18,0,.18v.19l0,.18-.07.18-.15.18-.22.11-.29.08-.51.11-.26.07-.22.07-.25.08h-.48l-.58,0-.29,0-.26-.11-.11,0L57,20,57,19.91l0-.07,0-.18,0-.11.07-.07.11-.08.11-.07.07,0,.08-.11,0-.11,0-.36v-1l0-.14,0,0-.22,0-.22-.11-.11-.11-.07-.11,0-.11,0-.11.14-.15.15-.25v-.41l0-.43-.07-.37-.07-.26-.22-.18-.29-.22-.11-.11L56,14.4l0-.08v-.07l0-.07,0-.11.15-.15.14-.22.08-.33.07-.36,0-.33.07-.22,0-.07v-.11l-.07,0h-.47L56,12.17l-.07-.08,0-.11v-.11l0-.14.07-.11.19-.11.22-.07.14,0,.11-.07.11-.11.07-.11.08-.51,0-.52L57,9.46V9.39l.07,0,.18-.14.11,0h.11l.07,0,0,.07,0,.29V9.9l0,.33v.33l0,.29.07.22.07.07.08,0,.07,0,.07-.07.19-.62.22-1.1.21-1.06.15-.69.07-.33V6.94l0-.11,0-.07h-.07l-.11.07-.51.59L57.48,8l-.63.54Zm-2.26,1.31.07.11,0,.15.07.22.11.47,0,.51,0,.44.08.37.07.14.11.11.18.08.22,0,.26,0,.14,0,.11-.11.08-.11v-.51l-.08-.37-.11-.65-.11-.66-.07-.51-.07-.15-.11-.11-.11,0-.19,0-.36.07-.4.08-.15.07-.07.07,0,.07v0l.07.15.11.07ZM51,11.8h.08l0,0,.11.14,0,.37,0,.58,0,.66,0,.66v.26l0,.22-.07.14-.11.11-.15.15-.11,0-.25.11-.55.41-.11.14-.11.11,0,0,0,0h0l0,0,0,.14-.07.37v.18l0,.18v0l0,.07h.11l.29-.11.37-.18.36-.18.26-.07.11,0,.11.11,0,.15.08.18,0,.33,0,.22-.08.18-.14.33-.11.37-.11.25,0,.26,0,.29,0,.37-.07.32,0,.19,0,.11.07.11.11.07.14,0h.15l.15,0,.18-.11.15-.11.18-.18.18-.26.18-.29.15-.4.18-.48.22-.55.18-.65.3-1.25.18-.87.07-.55V14.4l-.11.25-.18.55-.07.22-.11.15-.08,0h-.11l-.1,0-.15-.08-.11-.07v-.11l0-.11.07-.15.18-.22.11-.25v-.15l0-.07-.07-.07-.07,0-.18-.07-.08,0,0-.26,0-.65,0-.77,0-.62,0-.33.14-.48.11-.47.07-.44V10L53,9.83l-.07-.11-.11-.11-.22-.22-.11-.15V9.17l-.07,0,0,0h-.07l-.19.07-.18.11-.4.29-.33.3-.33.25-.58.4-.3.22-.29.26-.29.22-.18.22-.11.14v.19l0,.14v.15l.08,0,.07.08.15.07.18.07.33.11.22.08.14,0,.15-.11.11-.11.11-.15.25-.22Z" transform="translate(0 0)"/>
  <polygon class="cls-1" points="81.41 10.78 81.3 10.67 81.3 10.45 81.33 10.41 81.41 10.34 81.52 10.3 81.63 10.3 81.77 10.3 81.92 10.34 82.07 10.38 82.21 10.49 82.5 10.63 82.76 10.78 83.02 10.93 83.31 11.03 83.97 11.18 84.95 11.36 85.46 11.4 85.87 11.44 86.23 11.4 86.49 11.36 86.89 11.33 87.18 11.33 87.55 11.51 87.98 11.84 88.35 12.13 88.53 12.28 88.5 12.39 88.5 12.64 88.46 12.79 88.39 12.94 88.31 13.08 88.17 13.19 87.8 13.45 87.11 13.99 86.23 14.65 85.35 15.42 84.84 15.89 84.44 16.33 84.19 16.63 84.08 16.77 84 16.92 84 16.99 84.08 17.03 84.22 17.03 84.59 16.99 85.06 16.88 85.28 16.73 85.46 16.63 85.68 16.73 85.97 16.88 86.19 17.06 86.34 17.21 86.38 17.32 86.38 17.46 86.3 17.65 86.19 17.83 86.12 17.9 86.01 18.01 85.9 18.05 85.79 18.12 85.61 18.16 85.46 18.2 85.25 18.2 85.06 18.16 84.59 18.12 84.15 18.12 83.71 18.16 83.27 18.2 82.36 18.38 81.44 18.64 80.46 18.89 79.47 19.22 79.03 19.4 78.63 19.59 78.3 19.73 78.08 19.88 78.01 19.95 77.9 19.99 77.83 20.02 77.72 20.02 77.5 19.99 77.28 19.88 76.84 19.62 76.37 19.33 76.18 19.22 76.04 19.07 75.89 18.89 75.78 18.67 75.74 18.45 75.71 18.27 75.71 18.05 75.71 17.87 75.74 17.72 75.82 17.61 75.89 17.54 76.04 17.5 76.4 17.5 76.62 17.54 76.84 17.57 77.24 17.65 77.61 17.72 77.83 17.72 78.08 17.65 78.67 17.5 79.44 17.28 80.13 17.14 80.68 16.99 81.01 16.92 81.59 16.52 82.61 15.6 83.67 14.69 84.33 14.1 84.92 13.67 85.76 13.04 86.12 12.75 86.41 12.46 86.52 12.35 86.56 12.24 86.56 12.2 86.52 12.13 86.27 12.13 85.94 12.17 85.54 12.24 85.1 12.31 84.19 12.57 83.53 12.72 83.38 12.86 83.27 13.01 83.09 13.04 82.87 13.04 82.69 13.01 82.47 12.94 82.28 12.82 82.1 12.72 81.92 12.57 81.77 12.35 81.63 12.02 81.48 11.58 81.41 11.36 81.37 11.14 81.37 10.96 81.41 10.78"/>
  <path class="cls-1" d="M104.17,28.72l-.07.33-.11.73,0,.55,0,.69.11.73.15.59.18.51.18.47.19.41.18.29.11.22.07.22,0,.11,0,0H105l-.18-.07-.55-.48-.55-.47-.33-.22-.32-.15-.3-.11L102.6,33l-.11-.11-.07-.11,0-.11V32l.08-.69.07-.29,0-.26.08-.25.11-.19.11-.36.07-.29,0-.3.07-.29,0-.11.07-.11.07-.07.11-.07.51,0Zm1.72-4.93-.48.76-.51.81-.33.4-.07.07-.15,0-.18,0h-.66l-.32,0-.44-.07-.62-.08-.7-.07-.55-.07-.33-.08h-.32l-.11.08-.08.11-.07.11-.07.14v.22l0,.15.11.18.22.22.26.18.25.08.3.07.54,0,.48,0,.37,0h.25v.08l-.07.1-.11.19-.07.11-.11.07-.15.11-.18.07-.41.15-.51.11-1.13.29-1.21.4-.29.08-.29,0-.29,0-.33,0h-.7l-.69,0-.88.11-.8.11-.66.15-.4,0-.26,0-.18.07-.11.08-.11.07,0,.07,0,.08,0,0,0,0,.81.07.73,0,.73,0h1.17l.54,0h.63l.58,0,.77-.11,1-.15.88-.15.51-.11.37-.11.58-.25.66-.33.59-.37.47-.22.51-.14.55-.37.51-.33.18-.07.22,0,.22,0,.22.11.4.22.3.19H107l.11,0,.07,0,.19-.11.14-.18.15-.22.07-.22,0-.22,0-.22-.07,0-.07-.08h-.11l-.15,0-.29,0-.33,0h-.18l0,0,0,0v0h-.07l0-.07,0-.11.11-.22.22-.29.26-.33.58-.66.44-.54.14-.22.08-.22,0-.19,0-.18-.21-.36-.26-.33-.18-.3-.15-.1-.15,0-.21.07-.3.07-.22.08-.11.07-.07,0,0,.07v.4l0,.15-.07.11Z" transform="translate(0 0)"/>
  <path class="cls-1" d="M117.73,46.51l0-.14.08-.19.07-.07,0-.07.11,0h.11l.4,0,.36,0,.15.07.15.18,0,.08v.11l0,0-.08,0-.14.07-.22.11-.08,0-.14,0h-.26l-.44-.11Zm.47-1.86,0-.15,0-.22,0-.07.07-.07h.11l.15.07.25.18.19.15.07.07,0,.08,0,.07V45l0,.1,0,0h0l0,0-.08,0-.22-.11h-.14l-.15-.11Zm-.18-1.1,0,0,0-.15,0-.07v-.08l0-.07.07-.07.18-.11.11-.07,0,0h.07l0,0,0,.11.1.18.11.18,0,.11v.15l0,0-.07.11-.11.08-.14,0-.15-.07-.18-.15Zm-1,.88h.26l.44-.07.07,0,.07-.11,0-.11v-.29l-.07-.07-.15,0h-.15l-.18.11-.14.07-.08.15-.07.11,0,.18Zm-.51.18.15,0,.14.07.11.08.08.07.07.11,0,.11,0,.11v.11l0,.11-.11,0h-.29l-.37-.07-.26-.11H116l-.11,0h-.07l-.11,0-.07,0,0,.07,0,0,0,.07,0,.07.11.08.11,0,.18.08.4.11.51.14.22.11.15.11.07.11,0,.07,0,.08,0,.07-.08,0-.07,0H117l-.18,0h-.11l-.07,0-.11.07-.11.07,0,0v0l0,0,0,0,.14,0,.18,0,.41,0h.54l.15,0,.22.08.22.11.22,0h.25l.26,0,.15,0,.07,0,.07-.07.07-.07.08-.22.11-.37.07-.14.11-.11h.11l.15.07.25.22.22.22.22.22.29.25.26.26.18.26v.11l0,.07-.08,0-.14,0h-.3l-.29,0-.36,0-.52,0-.54,0-.55,0-.51-.07-.52,0h-.84l-.07-.07-.11,0-.22-.22-.36-.33-.37-.29-.33-.18-.29-.15-.37-.18-.32-.22-.33-.26-.29-.29-.33-.37-.19-.14-.14-.11-.19,0h-.11l-.11,0-.07.11v.11l.07.18.3.18.29.15.18.26.3.32.32.33.37.3.69.54.41.26.1.07v0l-.1,0-.26.07-.15,0h-.51l-.25-.08-.52-.11-.29-.11-.22-.14-.25-.19-.11-.11-.15,0-.11-.08h-.14l-.26,0-.26-.07-.25-.11-.29-.18-.22-.15-.33-.18-.37-.22-.36-.15-.33-.14-.22,0-.33-.18-.33-.3L108.7,45l-.22-.3-.11-.18-.11-.18-.14-.15-.11-.07-.11,0-.18.1-.11.15-.08.11.19.48.25.43.11.19.15.14.14.19.15.1.37.3.4.22L110,47l.58.41.19.18.14.18.07.11V48l0,.07,0,.08-.11.07-.11.07-.18.15-.26.18-.36.22-.37.22-.47.11-.44.07-.29.11-.15,0-.07,0-.11-.14-.11-.15-.11-.22-.18-.4-.19-.37-.07-.1-.07,0h-.07l0,0-.07.14,0,.15,0,.18.07.33.11.44.07.47,0,.48,0,.33,0,.07,0,0,.07.07.07,0,.22,0,.22,0,.44,0,.29-.07.4-.18.59-.33.62-.37.44-.22.4-.25.48-.41.11-.1.11-.08.1,0,.11,0h.11l.11.07.19.11.14.18.11.11,0,.08,0,.07,0,0-.15,0-.14,0h-.52l-.1,0h-.11l0,0v0l.15.11.32.15.4.21.48.26.4.29.26.15h.11l.11,0,.11-.11.11-.18.07-.22v-.26l0-.25-.07-.26-.11-.25-.11-.19-.15-.14-.07,0-.18-.07-.15-.11-.18-.22-.18-.26,0-.07,0,0,0,0v0l.15,0,.18,0,.47.11.48.15.4.14.48.15.22.15.25.14.26.18.29.26.26.26.22.14.21.08.15,0,.26,0,.25-.08.07-.07v-.22l0-.15-.08-.18,0-.14,0-.19,0-.18,0-.11.08-.07.11,0h.14l.41,0,.51,0h.33l.32.08.3.07.33.11.62.26.55.18.25.07.26,0,.29,0,.29-.07.26-.11.22-.14.14-.22.08-.22,0-.19,0-.25,0-.15,0-.11-.11-.11-.15-.07-.48-.29-.58-.4-.58-.37-.37-.22h-.11l-.11-.07-.11-.08-.07-.07-.07-.07,0-.11,0-.07,0-.11v-.19l-.07-.18V45l.07-.11.07-.07.08-.08.1,0,.11,0,.26,0,.29.07.41.15.47.14.51.18.44.19.22.07.15,0h.14l.11,0,.22-.11.18,0h.08l.11,0,0-.08,0-.07.07-.33,0-.47,0-.26-.07-.22-.07-.14-.11-.08-.11,0h-.11l-.08,0,0,0,0,.11-.11.07-.22.08-.4.25-.15,0-.18.07h-.22l-.22,0-.51,0-.55,0-1-.14-.47-.11-.07,0-.08-.07,0-.07,0-.11-.08-.19-.11-.25-.14-.19-.15-.18-.14-.11-.19-.11,0,0,0-.11v-.22l.07-.22,0-.07V42l.07-.14,0-.11v-.11l0-.11,0-.15-.08-.07-.07-.07h-.18l-.07.07-.11.07-.08.11-.07.18-.26.41-.4.54-.44.55-.4.44-.22.18-.14.11-.19.08-.14,0-.11,0-.08,0,0,0,0-.07.22-.55.15-.51,0-.15v-.22l-.08-.18L116,42l-.07-.08,0,0-.07,0,0,.08-.14.22-.15.36-.18.33-.18.29-.18.26-.19.11-.14.07-.11.07-.11.11-.15.19-.07.11,0,0,0,.08,0,0,.15,0,.22.07.4.11.55.07.58.08Z" transform="translate(0 0)"/>
  <path class="cls-1" d="M69.79,116.81H69v-.4l-.07-.33-.07-.33-.11-.25-.15-.18-.18-.15-.22-.11L68,115l-.29,0-.26.07-.22.15-.14.18-.15.26-.07.33-.07.36v.66l0,.22,0,.18.07.18.11.15.11.15.11.11.15.11.22.14.33.15.29.14.22.11.4.22.33.26.25.25.22.3.15.33.11.36.07.4v.44l-.07.62-.11.59-.07.25-.11.22-.08.22-.14.18-.11.19-.19.14-.14.11-.18.11-.19.11-.22.08-.25,0h-.55l-.33-.07-.25-.11-.26-.15-.22-.22-.18-.25-.18-.33-.15-.33,0-.29-.07-.4v-1.14h.73v.59l0,.51.07.4.15.33.07.15.11.11.11.11.14.07.11,0,.15.07h.37l.29,0,.25-.11.22-.11.15-.18.14-.26.11-.29.08-.33,0-.36,0-.33,0-.29-.07-.22-.11-.22-.11-.18-.18-.19-.19-.11-.22-.14h-.07l-.07-.11-.18-.08-.26-.11-.55-.32-.36-.26-.19-.15-.18-.18-.11-.22-.11-.25-.11-.3,0-.32,0-.37v-.4l0-.62.07-.52.07-.25.11-.22.07-.22.11-.18.15-.15.11-.14.18-.15.15-.07.18-.11.18,0,.22,0,.22,0,.22,0,.26,0,.18,0,.22.07.15.11.18.11.14.15.11.18.11.18.11.22.08.22.07.25.07.55ZM42.2,119h.37l.18-.07.18-.07.19-.11.18-.11.14-.15.15-.18.15-.18.14-.22.11-.22.11-.26,2.74-7.2-.8-.4-2.71,7.24-.14.29-.15.22-.18.18-.22.15-.22.07-.18,0H42l-.18-.08-.19-.11-.14-.14-.11-.22-.11-.26-.07-.25v-.3l0-.29.08-.29,2.7-7.23-.77-.41-2.7,7.2-.08.29-.07.26,0,.25v.77l.07.22,0,.22.15.26.15.25.14.22.19.18.22.19.25.11.29.11Zm5.67,2.23,0-9.46-2.59,8.58-.81-.32,2.89-9.58,1.28.48-.11,7.78,1.9-7.2.8.29-2.59,9.69Zm2.74.84,2.08-9.79-.84-.22-2.08,9.79Zm3.47-1.31,0-8.08-.88-.29.19,10.38.8.18,3-9.65-.8-.14Zm2.52,2.59,1.2-9.94,3.33.48-.11,1-2.48-.36-.37,3.25,1.86.29-.11,1-1.86-.26-.51,3.69,2.63.37-.11,1Zm8.62.73-1.09-5,.14-.08.15-.11.11-.11.11-.11.18-.29.18-.29.11-.37.07-.32.08,0,0-.07,0-.26v-1l-.07-.41-.11-.4-.18-.4-.11-.18-.15-.15-.15-.14-.18-.11-.18-.11-.18-.08L63.8,114h-.22l-1.79-.11L61.35,124l.88,0,.18-4.78.87,0,1,4.83Zm-2.78-5.88.15-3.33.8,0,.22,0,.22.11.19.14.14.22.11.22.07.26,0,.29,0,.33,0,.33-.11.36-.11.33-.14.29-.15.19-.18.14-.22.08h-.26Zm9.61,5.59-.84-10-.84.11.84,10Zm-.32-9.14-.08-.94,4-.59.07.88-1.6.33,1.13,9-.84.15-1.13-9ZM78.56,118l1,4.72.81-.26-1-4.68L80,112l-.8.25-.48,4.39-1.83-3.88-.8.26Zm9.21,2,.25-.15.22-.15.18-.14.15-.22.15-.22.11-.26.07-.29,0-.29,0-.37,0-.43-.08-.48-.11-.55-.25-1.17-.33-1.13-.22-.58-.18-.52-.22-.51-.22-.47-.26-.44-.22-.4-.22-.3-.22-.25-.18-.18-.22-.15-.22-.11-.22-.07-.25,0h-.26l-.22.07-.29.08-.22.14-.22.15-.18.18-.18.18-.11.26-.11.26-.08.25,0,.33,0,.33,0,.4.07.44.07.51.26,1.06.37,1.1.4,1.13.44,1.1.21.47.26.4.22.37.22.25.18.19.22.14.22.11.26.08.21,0h.26l.22-.07Zm-.26-.88-.26.07H87l-.14,0-.15-.08-.11-.11-.14-.11-.15-.18-.18-.22-.15-.25-.14-.3-.22-.43-.26-.66-.22-.66L85,115.5l-.18-.59-.18-.62-.19-.54-.11-.44,0-.37,0-.33v-.25l0-.26v-.18l.07-.19,0-.14.11-.11.18-.18.22-.15.22-.07h.25l.15,0,.11.08.15.07.14.15.15.14.14.22.15.26.15.29.22.44.22.51.21.58.22.59.19.62.22.69.18.66.11.51,0,.37,0,.29v.51l0,.22,0,.18-.07.15-.08.11-.18.18Zm3.25-.44L87,109.25l3.07-1.64.41.91-2.34,1.21,1.09,2.59,2-1.1.33.92-2,1.09,1.94,5Zm1.87-11.47,1.42-1L98.8,114l.7-.51-4.72-7.82,1.39-1-.51-.8-3.51,2.48Zm8.87,5-5.26-8.7,2.67-2.3.51.8-2,1.68L99,106.4l1.57-1.35.51.8-1.57,1.35,2.16,3.55,2.12-1.83.51.81Zm4.1-7.64.36.51.26.44.18.4,0,.29v.3l0,.22-.11.18-.14.18-.22.15-.22.11h-.26l-.18,0-.15-.07-.22-.08-.18-.14-.26-.15-.21-.22-.33-.36-.44-.48-.44-.55-.4-.47-.37-.55-.44-.62-.4-.58-.25-.48-.15-.29-.11-.29-.11-.26,0-.22,0-.22,0-.18,0-.15,0-.14.11-.26.15-.22.18-.11.15-.11.18-.07.22,0,.26.07.25.18.33.29.33.41.62-.66-.4-.48-.4-.36-.22-.15-.18-.11-.22-.11-.19,0-.18,0h-.4l-.18.07-.19.08-.18.11-.15.11-.18.18-.18.22-.15.22-.14.25-.08.26,0,.25,0,.3v.29l.07.29.11.33.15.44.22.47.29.48.29.51.33.51.33.51.37.48.73.87.76.81.37.36.33.3.33.25.29.15.26.07.25.07h.22l.26,0,.22-.08.21-.11.22-.14.19-.18.18-.19.15-.18.1-.22.08-.22.07-.18,0-.26V106l0-.26-.07-.26-.08-.25L107,105l-.33-.55-.41-.59Zm6.06-2.48-7-7.35-.58.7,3.28,3.25-1.57,1.93-3.25-3.28-.55.73,6.91,7.27.58-.7-3.07-3.36,1.58-1.93,3.14,3.43Zm2.89-4-8-3.69,6.5,5.81-.51.77L105,94.2l.84-1.25,6.72,3.33-5.55-5,.43-.8,7.64,6.8Zm2.37-3.94-.14.25-.15.22-.18.18-.22.15L116,95l-.22.07-.25,0h-.26L115,95l-.4-.15-.44-.18-.51-.26-1-.62-1-.62-.44-.33-.48-.36-.44-.37-.43-.4-.41-.37-.36-.36-.26-.33-.18-.33-.15-.26-.07-.29-.07-.25V89l.07-.26.07-.29.15-.26.15-.25.18-.22.18-.22.18-.15.22-.11.26-.07h.51l.29,0,.4.14.41.19.47.25,1,.59.95.62.92.69.91.81.4.36.37.4.29.33.18.29.15.3.07.25.08.3v.54l-.08.26-.07.29Zm-.65-.48.07-.29.07-.26,0-.18v-.14l-.08-.19-.07-.18-.11-.18-.18-.22-.19-.22-.21-.26-.41-.33-.58-.47-.62-.48-.51-.36-.55-.37-.59-.4-.58-.4-.44-.22-.29-.15-.26-.07-.22-.07-.22,0h-.18l-.14,0-.15,0-.11.08-.18.18-.19.22-.11.26,0,.29v.14l0,.15.08.18.07.18.11.19.15.22.18.22.22.25.4.33.55.44.58.47.51.37.48.33.58.36.52.3.4.22.33.14.36.18.33.15.26.07h.18l.15,0,.14,0,.11-.07.18-.15Zm-6-8.73-.36.88,8.66,5L120,87.4l-.73-.4-1.09,2.48Zm10.64.33-.11.25-.15.26-.18.18-.22.15-.26.14-.25.08-.3.11-.25,0-.33,0h-.33l-.4-.07-.44-.08-.47-.11-.48-.11-.47-.18-.48-.18-1.06-.44-1.06-.55-.47-.29-.44-.25-.37-.3-.22-.25-.18-.22-.18-.26-.11-.29-.11-.29-.07-.3,0-.29V81.7l.07-.33.11-.25.15-.26.18-.22.22-.15.22-.14.26-.11.25-.07.29,0,.33,0,.4,0,.48.11.55.11,1.13.33,1.06.4.95.44L119,82l.4.22.33.25.29.22.22.26.18.25.18.26.11.25.15.33.07.29,0,.3v.29Zm-1.87.25h-.73l-.29-.07-.4-.07-.51-.15-.55-.18-.51-.18-.59-.26-.73-.29-.66-.33-.43-.22-.52-.37-.33-.32-.21-.3-.15-.29,0-.15v-.14l0-.15,0-.14,0-.15.07-.11.08-.11.11-.11.14-.11.15-.07.18-.07.22,0,.22,0h.22l.25,0,.33.07.48.11.69.26.73.25.62.22.48.22.55.22.47.22.37.18.51.37.33.33.14.14.11.15L120,84l.08.14,0,.18,0,.15,0,.15,0,.14,0,.11L120,85l-.11.11-.11.11-.15.07-.18.07-.22.08ZM123,77,118.17,76l-.41,2.16.81.18.22-1.13.44.07.58.11.55.11.36.11.37.15.29.14.11.11.11.11.07.11.08.11.07.15V79l-.07.26-.15.21-.11.11-.11.08-.14.07-.15,0-.33.07-.33.07h-.73l-.8-.07-.84-.11-.84-.18-.81-.22-.69-.22-.59-.26-.25-.11-.26-.14-.22-.15-.14-.11-.15-.14L114,78,114,77.9l-.07-.15,0-.22v-.36l.08-.18.07-.15.11-.15.18-.11.22-.1.26-.08h.29l.33,0,.36.07.19-1-.48-.07-.44,0h-.43l-.41.11-.25.07-.22.15-.22.18-.18.19-.19.22-.11.25-.07.22,0,.26v.29l0,.29,0,.26.11.25.07.26.15.22.18.18.18.22.29.22.37.22.4.18.48.18.47.19.55.18.55.11.55.14.54.11.59.08.55.07.51,0,.51,0,.44,0,.44,0,.36-.07.22-.08.22-.11.22-.1.18-.19.15-.18.14-.22.11-.26.08-.29,0-.22v-.44l0-.21-.08-.19-.07-.18-.07-.18-.15-.19.66.15ZM118.86,74l4.57.84.14-1L118.93,73l-5-2.56-.07,1,4,1.93-4.39.81-.18,1Zm-102.75.92-.11-1,.19,0,.22,0,.21,0,.22-.11.22-.14.15-.19.07-.11,0-.14,0-.15v-.15l-.08-.32-.07-.26L17.1,72,17,71.87l-.18-.18-.19-.15-.21-.11-.19-.07-.22,0h-.36l-.22.08-.4.18-.4.25-.41.33-.4.37-.73.84-.66.84-.33.4-.25.33-.26.26-.22.22-.22.14-.25.07-.33.08-.4.07H9.94l-.29-.07-.33-.08L9,75.45l-.18-.11-.15-.11-.15-.14L8.4,74.9l-.11-.18-.11-.25,0-.22,0-.26,0-.4,0-.33.07-.33.11-.26.15-.25.15-.22.18-.15L9,71.91l.4-.22.37-.15.36-.07.33,0,.08.95-.44.08-.37.11-.29.1-.22.19L9,73,9,73.3l-.07.25v.33l0,.26.1.18.08.18.14.11.19.07.18.08.22,0h.22l.33,0,.25-.11.22-.11.18-.15.59-.69.58-.7.62-.69.63-.62.32-.29.37-.26.37-.22.4-.18.4-.11.44-.07h.47l.51,0,.19.08.14.11.19.1.14.11.15.11.14.15.11.18.11.19.11.21.08.22,0,.3,0,.25v.59l-.07.25-.08.22-.11.18-.11.19-.14.18-.15.11-.36.22-.33.14-.37.11ZM9,79.25,9,79V78.7l0-.22,0-.21.11-.19.15-.18.14-.22.19-.18.29-.26.33-.22.4-.18.4-.22.48-.18.47-.18.51-.15L13,76l1-.22,1-.14.95-.11.81,0,.36,0,.37,0,.36.1.3.15.25.22.22.26.11.14.07.15.08.18,0,.18.08.33v.26l0,.25-.07.22-.11.22-.15.19-.15.21-.21.19-.26.22-.37.18-.47.22-.51.22-.55.22L15.6,80l-.55.15-.54.14-.55.11-.59.11-.62.07-.58.08-.59,0-.55,0-.43,0-.33-.07L10,80.57l-.22-.11-.18-.15-.18-.14L9.32,80l-.11-.18-.11-.26Zm.81-.18,0,.18.14.15.07.11.11.07.15.07.18.08.19.07.25,0h.59l.51-.08.8-.11.84-.14.62-.15.62-.18.74-.18.69-.22.47-.19.3-.14.25-.11.18-.15.19-.14.11-.15.11-.15.07-.14,0-.11.07-.18v-.19L18.09,77l-.15-.15-.07-.07-.11-.11-.15-.07-.18-.07-.18-.08-.26,0h-.58l-.55,0-.66.08-.73.14-.77.15L13,77l-.69.18-.66.22-.51.22-.29.14-.22.11-.22.15-.19.15-.11.14-.11.15-.07.14-.07.15,0,.15Zm.8,5.74.15.36.22.33.11.18.14.11.15.15.18.11.19.07.18.07.22,0,.22,0h.22l.21,0,.22,0,.26-.07,7.53-2.7-.33-.88L13,85.21l-.25.07h-.26l-.22,0L12,85.17,11.8,85l-.18-.15-.11-.18-.07-.22,0-.22V84l0-.26.11-.25.11-.22.18-.22.22-.15.22-.14,7.45-2.52-.22-.85-7.45,2.45-.22.08-.22.14-.22.11-.15.18-.18.15-.11.18-.14.22-.08.19-.07.21-.07.22,0,.19,0,.22,0,.43Zm9.58-.7.76-.33,1.61,3.55-.8.29-.62-1.35-8.48,3.47-.4-.95,8.51-3.4ZM16.15,96.35l8.92-4.71-.52-.81-3.72,1.91-1.28-2.45,3.69-1.68-.4-.84L13.7,92l.44.84,4.46-2.19L20,93.17l-4.34,2.38Zm6.5,4.35.44.8-.33.22-.29.19-.29.14-.26.11-.25.08-.22.07-.26,0H21l-.18,0-.22-.07-.15-.08-.18-.11-.14-.11-.15-.18-.15-.18-.11-.22-.11-.26-.11-.29,0-.26v-.25l0-.29,0-.26.11-.29.15-.26.18-.33.26-.32.32-.33.33-.37.41-.37.43-.36.44-.37.48-.32.51-.33.47-.33.48-.26.47-.25.48-.19.44-.18.4-.11.36-.07h.26l.26,0,.25.08.22.11.18.14.19.15.14.22.15.25.11.22.07.22,0,.22,0,.22V97l-.07.22-.07.22-.07.22-.11.18-.15.22-.18.22-.19.18-.21.18-.22.22-.26.19-.44-.81.4-.33.33-.29.22-.29.11-.26.07-.25v-.22l-.07-.18-.07-.22L27,96l-.18-.19-.11,0-.15,0-.14,0h-.19l-.18,0-.25,0-.26.11-.29.11-.55.29-.55.29-.55.29-.51.37-.51.36-.47.37-.48.4-.44.4L21,99l-.22.26-.14.18-.15.22-.07.18-.07.18,0,.15v.15l0,.29.07.25.11.19.14.14.19.11.22,0h.29l.36-.11.44-.22Zm2.16,6.43-.62-.58,3.83-3.4-1.53-1.9-4.13,3.29-.62-.7,7.71-6.21.62.7-2.89,2.33,1.54,1.9,2.92-2.66.62.65Zm1.64,1.61-.65-.62,7.34-6.73.69.63ZM30.33,112l.76.55,7.13-7.28-.77-.54L33,109.18l2.92-5.41-1.1-1-7.12,7,.8.69,6.22-6.28Zm5.37-.88,1.39,1.21-1.57,3.25.84.47,4.2-9.13-1-.62-7.49,7,.73.51Zm1.79.33-1.1-1,2.78-2.67Z" transform="translate(0 0)"/>
  <path class="cls-1" d="M73.44,102.86l.77,3.18.4-.08.15.48-.44.07.37,1.42-.44.11-.37-1.42-1.68.4-.15-.51,1.17-3.62Zm.33,3.28-.58-2.44-.84,2.81Zm-16.44,1.21-.07,0,0,0-.07,0-.11,0-.26,0-.33,0,0,.15,1.93.51,0-.15-.26-.1-.18-.11,0-.08,0-.07v-.15L59,103.15l-.36.14-.41.08-.4.07-.4,0,0,.18h.29l.3,0,.11.07.07.07V104l0,.18Zm4.49,1.06v-.15l.3-.11.25-.11.26-.14.18-.22.26-.37.22-.36.14-.44.11-.4-.25.14-.19.15-.11,0-.11,0h-.29l-.18,0-.15-.11-.14-.11L62,106l-.11-.22-.11-.26,0-.29v-.29l0-.26.07-.29.07-.26.11-.25.11-.18.11-.11.15-.11.11-.08.25-.11h.37l.15,0,.14.07.11.08.22.25.18.3.15.32.11.41,0,.43v.48l0,.44-.11.44-.07.22-.11.21-.11.22-.15.19-.15.18-.18.18-.22.15-.18.14-.26.11-.25.11-.29.11Zm1.61-4.31-.11-.22-.18-.15-.07,0-.11,0h-.22l-.15,0-.07,0-.11.11-.07.11,0,.15,0,.22,0,.18v.69l.07.48.07.22.11.15.11.07.07,0h.26l.22-.07.22-.07.07-.07.07-.08,0-.07,0-.11,0-.26,0-.36,0-.22,0-.26-.08-.22Zm3.91.36,0-.18,0-.15.08-.1.07-.11.07-.08.11,0,.15,0h.29l.11,0,.11.07.11.07.07.11,0,.15,0,.18,0,.22v.18l-.07.22-.07.18-.15.15-.15.15-.14.11-.15.07-.18,0v.14l.33,0,.25,0,.19.11.18.1.11.15.11.15.07.14,0,.19v.29l0,.14,0,.15-.08.15-.11.14-.11.11-.11.08-.14.1-.15,0-.18,0-.18,0-.08-.14-.07-.15-.11-.11-.07,0-.11,0-.11,0-.11.07-.07.11,0,.14v.15l.07.07.11.11.15.11.14,0,.11.07h.44l.26-.07.25-.11.26-.18.18-.22.18-.22.15-.29.07-.26v-.29l0-.29,0-.15-.07-.15-.08-.14L69.2,106l-.14-.15-.15-.11-.14-.11-.22-.11.29-.22.22-.25.11-.26.07-.25v-.22l0-.26-.07-.22-.11-.18-.18-.15-.18-.14-.19-.08-.22,0-.25,0-.22.08-.22.14-.18.22-.11.15,0,.18,0,.22,0,.22Z" transform="translate(0 0)"/>
</svg>
